# xmcd
#
# Track frame offsets: 
#        150
#        42150
#        87769
#        101451
#        117999
#        135171
#        149505
#        174544
#        188210
#        198188
#        213572
#        227806
#        265576
#        279640
#        303405
#        324729
#
# Disc length: 4632 seconds
#
# Revision: 28
# Processed by: cddbd v1.5.2PL0 Copyright (c) Steve Scherf et al.
# Submitted via: ExactAudioCopy v1.0b3
#
DISCID=e2121610
DTITLE=Neil Young - Greatest Hits
DYEAR=2004
DGENRE=Rock
TTITLE0=Down By The River
TTITLE1=Cowgirl In The Sand
TTITLE2=Cinnamon Girl
TTITLE3=Helpless
TTITLE4=After The Gold Rush
TTITLE5=Only Love Can Break Your Heart
TTITLE6=Southern Man
TTITLE7=Ohio
TTITLE8=The Needle And The Damage Done
TTITLE9=Old Man
TTITLE10=Heart Of Gold
TTITLE11=Like A Hurricane
TTITLE12=Comes A Time
TTITLE13=Hey Hey, My My (Into The Black)
TTITLE14=Rockin' In The Free World
TTITLE15=Harvest Moon
EXTD=
EXTT0=\nYEAR: 1969
EXTT1=\nYEAR: 1969
EXTT2=\nYEAR: 1969
EXTT3=\nYEAR: 1969
EXTT4=\nYEAR: 1970
EXTT5=\nYEAR: 1970
EXTT6=\nYEAR: 1970
EXTT7=\nYEAR: 1970
EXTT8=\nYEAR: 1971
EXTT9=\nYEAR: 1971
EXTT10=\nYEAR: 1971
EXTT11=\nYEAR: 1975
EXTT12=\nYEAR: 1977
EXTT13=\nYEAR: 1978
EXTT14=\nYEAR: 1989
EXTT15=\nYEAR: 1991
PLAYORDER=
